<?xml version="1.0" standalone="no"?>
<!DOCTYPE svg PUBLIC "-//W3C//DTD SVG 20010904//EN"
 "http://www.w3.org/TR/2001/REC-SVG-20010904/DTD/svg10.dtd">
<svg version="1.0" xmlns="http://www.w3.org/2000/svg"
 width="360.000000pt" height="234.000000pt" viewBox="0 0 360.000000 234.000000"
 preserveAspectRatio="xMidYMid meet">

<g transform="translate(0.000000,234.000000) scale(0.100000,-0.100000)"
fill="#000000" stroke="none">
<path d="M1150 1298 c0 -249 1 -261 17 -230 33 67 102 102 176 88 40 -7 70
-37 92 -88 29 -70 14 -92 -71 -103 -32 -4 -66 -10 -77 -14 -20 -7 -19 -8 4
-24 29 -21 69 -22 95 -2 69 52 84 -46 16 -108 -11 -10 -33 -22 -48 -27 -18 -5
96 -8 286 -8 173 0 299 4 278 7 -96 19 -134 105 -62 141 l31 16 -29 26 c-23
21 -28 34 -28 70 0 24 7 54 16 67 33 47 122 65 189 37 55 -23 72 -77 35 -111
-25 -22 -62 -14 -84 20 -18 28 -36 33 -36 11 0 -8 27 -29 61 -47 71 -38 94
-73 86 -132 -7 -50 -43 -87 -94 -97 -23 -5 22 -8 117 -8 120 0 145 2 113 10
-105 23 -154 171 -95 288 38 73 163 103 230 53 68 -49 93 -174 52 -259 -24
-48 -52 -70 -107 -83 -32 -8 -24 -9 50 -10 l87 -1 0 390 0 390 -402 0 -403 0
56 -23 c73 -31 121 -68 159 -125 33 -51 38 -77 14 -86 -52 -20 -226 10 -321
55 -68 32 -172 124 -157 139 5 5 27 16 49 24 38 14 31 15 -127 15 l-168 1 0
-262z m915 209 c8 -12 27 -17 61 -17 27 0 55 -4 62 -9 31 -19 -136 -124 -220
-138 -31 -4 -37 -2 -56 28 -11 18 -18 37 -16 41 7 12 81 49 129 65 l40 13 -40
-6 c-22 -3 -64 -18 -93 -34 l-54 -29 -35 35 c-20 20 -31 39 -27 44 34 33 226
38 249 7z m-445 -330 l5 -128 38 50 c37 50 38 51 92 51 69 0 70 -10 10 -83
l-45 -56 55 -95 c30 -52 55 -99 55 -104 0 -6 -7 -13 -16 -16 -22 -8 -117 -7
-130 2 -7 4 -24 32 -38 62 l-25 55 -1 -52 c0 -59 -14 -73 -74 -73 -70 0 -66
-15 -66 267 l0 254 68 -3 67 -3 5 -128z"/>
<path d="M1267 1064 c-4 -4 -7 -15 -7 -24 0 -13 6 -16 25 -12 17 3 25 10 23
21 -3 17 -29 26 -41 15z"/>
<path d="M2264 1057 c-9 -24 1 -172 11 -170 17 3 28 71 20 128 -6 52 -20 70
-31 42z"/>
<path d="M1926 905 c29 -39 44 -44 44 -17 0 11 -14 25 -36 35 l-35 17 27 -35z"/>
<path d="M1150 848 l0 -68 78 1 c58 1 69 3 45 9 -51 12 -83 38 -104 83 l-19
42 0 -67z"/>
</g>
</svg>
